<?xml version="1.0" encoding="UTF-8" standalone="no"?>
<!-- Created with Inkscape (http://www.inkscape.org/) -->
<svg
   xmlns:svg="http://www.w3.org/2000/svg"
   xmlns="http://www.w3.org/2000/svg"
   xmlns:xlink="http://www.w3.org/1999/xlink"
   version="1.0"
   width="793"
   height="194"
   id="svg2">
  <defs
     id="defs4">
    <linearGradient
       id="linearGradient3134">
      <stop
         style="stop-color:#ff007f;stop-opacity:1"
         offset="0"
         id="stop3136" />
      <stop
         style="stop-color:#00a600;stop-opacity:1"
         offset="0.5"
         id="stop3142" />
      <stop
         style="stop-color:#0044ff;stop-opacity:1"
         offset="1"
         id="stop3138" />
    </linearGradient>
    <linearGradient
       x1="-4.4703484e-07"
       y1="105.06974"
       x2="733.89624"
       y2="105.06974"
       id="linearGradient3140"
       xlink:href="#linearGradient3134"
       gradientUnits="userSpaceOnUse"
       gradientTransform="matrix(1.0177147,0,0,1.0177147,0,-3.4366571)" />
  </defs>
  <g
     id="layer1">
    <path
       d="M -6.2584877e-07,154.66653 L -6.2584877e-07,12.988747 L 102.44096,12.988747 L 102.44096,29.707886 L 18.748629,29.707886 L 18.748629,73.100332 L 97.125631,73.100332 L 97.125631,89.722828 L 18.748629,89.722828 L 18.748629,137.9474 L 105.72681,137.9474 L 105.72681,154.66653 L -6.2584877e-07,154.66653 M 118.0004,154.66653 L 155.49766,101.31992 L 120.80303,52.032285 L 142.54757,52.032285 L 158.30029,76.096247 C 161.26394,80.670729 163.64779,84.504208 165.45182,87.596695 C 168.28662,83.3445 170.89596,79.575449 173.27986,76.289532 L 190.57885,52.032285 L 211.35697,52.032285 L 175.88921,100.35349 L 214.06296,154.66653 L 192.70499,154.66653 L 171.63694,122.77454 L 166.03168,114.17336 L 139.06844,154.66653 L 118.0004,154.66653 M 295.53252,142.00638 C 289.08962,147.48279 282.8723,151.34848 276.88053,153.60347 C 270.95308,155.85846 264.57468,156.98595 257.74534,156.98595 C 246.47036,156.98595 237.80476,154.24775 231.74852,148.77135 C 225.69226,143.23053 222.66413,136.17564 222.66414,127.60666 C 222.66413,122.58128 223.79162,118.00688 226.04662,113.88343 C 228.36603,109.69564 231.36194,106.34537 235.03437,103.83262 C 238.77118,101.31997 242.95902,99.41934 247.59788,98.130719 C 251.01254,97.22878 256.1668,96.359 263.06067,95.521374 C 277.10597,93.846299 287.4467,91.849024 294.08289,89.529544 C 294.14723,87.145765 294.17945,85.631702 294.17953,84.98735 C 294.17945,77.900316 292.53653,72.907129 289.25076,70.007775 C 284.80514,66.077738 278.20125,64.112678 269.43907,64.112587 C 261.25663,64.112678 255.20038,65.562313 251.27029,68.461496 C 247.40456,71.296424 244.53751,76.354039 242.66912,83.634356 L 225.66005,81.314938 C 227.20632,74.034623 229.75123,68.171655 233.2948,63.726017 C 236.83834,59.216133 241.96038,55.769224 248.66095,53.385279 C 255.36145,50.937108 263.12505,49.712972 271.95177,49.712867 C 280.71395,49.712972 287.83327,50.743823 293.30975,52.805424 C 298.78607,54.867229 302.81283,57.476572 305.39005,60.63346 C 307.96709,63.726108 309.77108,67.65623 310.80202,72.423835 C 311.38178,75.387615 311.67171,80.735157 311.67181,88.466477 L 311.67181,111.66066 C 311.67171,127.83218 312.02606,138.07627 312.73487,142.39295 C 313.50791,146.64522 314.98976,150.73641 317.18042,154.66653 L 299.01165,154.66653 C 297.20758,151.05855 296.04787,146.83851 295.53252,142.00638 M 294.08289,103.15612 C 287.76884,105.7333 278.29789,107.92386 265.67001,109.72781 C 258.51843,110.75871 253.46082,111.91841 250.49715,113.20694 C 247.53342,114.49554 245.24622,116.39617 243.63554,118.90884 C 242.02481,121.35715 241.21946,124.09535 241.21948,127.12344 C 241.21946,131.7623 242.95902,135.628 246.43817,138.72054 C 249.98169,141.81311 255.13595,143.35938 261.90096,143.35937 C 268.60145,143.35938 274.56106,141.90975 279.77981,139.01046 C 284.99843,136.04678 288.83191,132.02002 291.28026,126.93016 C 293.1486,123.00007 294.08281,117.20153 294.08289,109.53452 L 294.08289,103.15612 M 338.73169,154.66653 L 338.73169,52.032285 L 354.29112,52.032285 L 354.29112,66.432005 C 357.5125,61.406693 361.79698,57.379929 367.14456,54.351703 C 372.49206,51.259249 378.58053,49.712972 385.40998,49.712867 C 393.01245,49.712972 399.22977,51.291463 404.06196,54.448345 C 408.95843,57.605428 412.40534,62.018761 414.4027,67.688357 C 422.52057,55.704796 433.0868,49.712972 446.10142,49.712867 C 456.28095,49.712972 464.10898,52.547813 469.58552,58.2174 C 475.06178,63.822751 477.79998,72.488346 477.80013,84.21421 L 477.80013,154.66653 L 460.50114,154.66653 L 460.50114,90.012756 C 460.501,83.054573 459.92115,78.061386 458.76157,75.033181 C 457.66616,71.940706 455.63667,69.46022 452.6731,67.591714 C 449.70928,65.723383 446.23015,64.789174 442.23572,64.789084 C 435.01964,64.789174 429.02782,67.205232 424.26023,72.037266 C 419.49244,76.805036 417.1086,84.471994 417.10869,95.038161 L 417.10869,154.66653 L 399.71305,154.66653 L 399.71305,87.983265 C 399.71298,80.251946 398.29556,74.453406 395.46079,70.587629 C 392.62588,66.72202 387.98705,64.789174 381.54428,64.789084 C 376.64768,64.789174 372.10549,66.077738 367.9177,68.654781 C 363.79425,71.231996 360.79834,75.001046 358.92995,79.961944 C 357.0615,84.922991 356.12729,92.074523 356.12732,101.41656 L 356.12732,154.66653 L 338.73169,154.66653 M 503.79693,194 L 503.79693,52.032285 L 519.64629,52.032285 L 519.64629,65.368939 C 523.3831,60.150342 527.60315,56.252435 532.30645,53.675206 C 537.00967,51.03375 542.71156,49.712972 549.41216,49.712867 C 558.17434,49.712972 565.90572,51.967959 572.60634,56.477836 C 579.30679,60.987909 584.3644,67.366303 587.7792,75.613035 C 591.1938,83.795498 592.90114,92.783234 592.90125,102.57627 C 592.90114,113.07812 591.00051,122.54907 587.19934,130.98914 C 583.46241,139.36483 577.98601,145.80765 570.77013,150.31763 C 563.61852,154.76318 556.08042,156.98595 548.15581,156.98595 C 542.35721,156.98595 537.13852,155.76181 532.49973,153.31354 C 527.92529,150.86527 524.15624,147.77272 521.19257,144.03587 L 521.19257,194 L 503.79693,194 M 519.54965,103.92926 C 519.54962,117.1371 522.22339,126.89797 527.57097,133.21192 C 532.91847,139.5259 539.39351,142.68289 546.9961,142.68287 C 554.72743,142.68289 561.33132,139.42926 566.80779,132.92199 C 572.34854,126.35033 575.11896,116.20289 575.11904,102.47963 C 575.11896,89.400752 572.41297,79.607664 567.00108,73.100332 C 561.65346,66.593164 555.24285,63.339539 547.76924,63.339448 C 540.35993,63.339539 533.78826,66.818663 528.05418,73.776829 C 522.38446,80.670729 519.54962,90.721531 519.54965,103.92926 M 613.5827,154.66653 L 613.5827,12.988747 L 630.97833,12.988747 L 630.97833,154.66653 L 613.5827,154.66653 M 728.29728,121.61483 L 746.27277,123.8376 C 743.43782,134.33943 738.18692,142.4896 730.52005,148.28813 C 722.85301,154.08668 713.05992,156.98595 701.14076,156.98595 C 686.12893,156.98595 674.20971,152.37933 665.38306,143.16609 C 656.6208,133.88843 652.23968,120.90615 652.23969,104.21919 C 652.23968,86.95248 656.68523,73.551411 665.57635,64.015945 C 674.46742,54.48066 686.00007,49.712972 700.17433,49.712867 C 713.89749,49.712972 725.108,54.384017 733.80589,63.726017 C 742.50361,73.0682 746.85252,86.211556 746.85262,103.15612 C 746.85252,104.18703 746.8203,105.7333 746.75598,107.79496 L 670.21518,107.79496 C 670.85944,119.06995 674.04864,127.70333 679.78278,133.69513 C 685.51686,139.68697 692.66839,142.68289 701.2374,142.68287 C 707.61574,142.68289 713.05992,141.00775 717.56997,137.65747 C 722.07987,134.30722 725.65564,128.95968 728.29728,121.61483 M 671.18161,93.491883 L 728.49056,93.491883 C 727.71734,84.858563 725.52678,78.383527 721.91888,74.066756 C 716.37797,67.366303 709.19423,64.016035 700.36762,64.015945 C 692.37846,64.016035 685.64571,66.689806 680.16935,72.037266 C 674.75735,77.38489 671.76143,84.536422 671.18161,93.491883"
       style="font-size:197.92367554px;font-style:normal;font-weight:normal;fill:url(#linearGradient3140);fill-opacity:1;stroke:none;stroke-width:1px;stroke-linecap:butt;stroke-linejoin:miter;stroke-opacity:1;font-family:Bitstream Vera Sans"
       id="text2160" />
    <path
       d="M 755.8271,13.412226 L 758.23341,13.201838 C 758.34737,14.166121 758.61035,14.959458 759.02237,15.581851 C 759.44314,16.195485 760.09183,16.695156 760.96845,17.080864 C 761.84506,17.457811 762.83125,17.646283 763.92703,17.646281 C 764.90007,17.646283 765.75915,17.501642 766.50428,17.212356 C 767.2494,16.923076 767.80166,16.528599 768.16109,16.028925 C 768.52925,15.520492 768.71334,14.968224 768.71336,14.37212 C 768.71334,13.767261 768.53802,13.241292 768.18739,12.794212 C 767.83673,12.338378 767.25816,11.957051 766.45169,11.650228 C 765.93447,11.448614 764.79049,11.137416 763.01974,10.716631 C 761.24896,10.287099 760.00855,9.8838559 759.2985,9.5069013 C 758.37805,9.024773 757.68991,8.4286747 757.23407,7.7186045 C 756.78699,6.9997919 756.56346,6.197689 756.56346,5.3122934 C 756.56346,4.3392648 756.83959,3.4319681 757.39186,2.5904005 C 757.94413,1.7401008 758.75061,1.0957886 759.81132,0.65746208 C 760.87202,0.21917343 762.05107,1.9637183e-05 763.34847,3.1664968e-08 C 764.77734,1.9637183e-05 766.03528,0.23232266 767.1223,0.6969098 C 768.21806,1.1527686 769.05961,1.8277623 769.64695,2.7218929 C 770.23427,3.6160573 770.54985,4.6285478 770.5937,5.7593676 L 768.14794,5.943457 C 768.01643,4.7249755 767.56936,3.8045296 766.80672,3.1821164 C 766.05282,2.559736 764.93513,2.2485376 763.45366,2.2485202 C 761.91081,2.2485376 760.78436,2.5334375 760.07431,3.1032209 C 759.37301,3.6642711 759.02236,4.3436479 759.02237,5.1413533 C 759.02236,5.8338937 759.2722,6.4036936 759.77187,6.8507546 C 760.26277,7.2978411 761.54263,7.7580641 763.61145,8.2314249 C 765.68902,8.6960423 767.11352,9.1036684 767.88495,9.4543043 C 769.00701,9.9715174 769.83541,10.628979 770.37016,11.42669 C 770.90488,12.215652 771.17225,13.127332 771.17227,14.161733 C 771.17225,15.187378 770.87858,16.156038 770.29127,17.067715 C 769.70392,17.970631 768.85798,18.676306 767.75346,19.184743 C 766.65768,19.684414 765.42165,19.934249 764.04538,19.934249 C 762.3009,19.934249 760.83696,19.680031 759.65353,19.171593 C 758.47886,18.663157 757.55403,17.900502 756.87904,16.883625 C 756.21281,15.857988 755.86216,14.700856 755.8271,13.412226 M 774.60422,19.605518 L 774.60422,0.32873106 L 778.44379,0.32873106 L 783.00658,13.977643 C 783.42735,15.248741 783.73416,16.199868 783.92703,16.831028 C 784.14617,16.129739 784.48805,15.099716 784.95267,13.740957 L 789.56805,0.32873106 L 793,0.32873106 L 793,19.605518 L 790.5411,19.605518 L 790.5411,3.4713997 L 784.93952,19.605518 L 782.6384,19.605518 L 777.06312,3.1952656 L 777.06312,19.605518 L 774.60422,19.605518"
       style="font-size:26.92964554px;font-style:normal;font-weight:normal;fill:#000000;fill-opacity:1;stroke:none;stroke-width:1px;stroke-linecap:butt;stroke-linejoin:miter;stroke-opacity:1;font-family:Bitstream Vera Sans"
       id="text3144" />
  </g>
</svg>
